<svg width="32" height="32" viewBox="0 0 32 32" fill="none" xmlns="http://www.w3.org/2000/svg">
  <rect width="32" height="32" rx="8" fill="#FF6D5A"/>
  <path d="M11 12.5C11 11.6716 11.6716 11 12.5 11H14.5C15.3284 11 16 11.6716 16 12.5V19.5C16 20.3284 15.3284 21 14.5 21H12.5C11.6716 21 11 20.3284 11 19.5V12.5Z" fill="white"/>
  <path d="M16 16.5C16 15.6716 16.6716 15 17.5 15H19.5C20.3284 15 21 15.6716 21 16.5V19.5C21 20.3284 20.3284 21 19.5 21H17.5C16.6716 21 16 20.3284 16 19.5V16.5Z" fill="white"/>
</svg> 